<svg width="28" height="28" viewBox="0 0 28 28" fill="none" xmlns="http://www.w3.org/2000/svg">
<path d="M2.61075 12C1.50618 12 0.610748 12.8954 0.610748 14C0.610748 15.1046 1.50618 16 2.61075 16V12ZM25.3893 16C26.4938 16 27.3893 15.1046 27.3893 14C27.3893 12.8954 26.4938 12 25.3893 12V16ZM16 2.61075C16 1.50618 15.1046 0.610748 14 0.610748C12.8954 0.610748 12 1.50618 12 2.61075H16ZM12 25.3893C12 26.4938 12.8954 27.3893 14 27.3893C15.1046 27.3893 16 26.4938 16 25.3893H12ZM2.61075 16H25.3893V12H2.61075V16ZM12 2.61075V25.3893H16V2.61075H12Z" fill="black"/>
</svg>
